# Blender 4.5.2 LTS
# www.blender.org
o Plane
v -15.223937 -2.950840 9.117527
v 15.344901 -2.950840 9.117527
v -15.223937 -2.950840 1.117527
v 15.344901 -2.950840 1.117527
v -15.223937 -8.082233 9.117527
v 15.344901 -8.082233 9.117527
v -15.714684 -2.215621 8.777363
v -15.714684 -2.215621 0.777362
v -15.892568 -8.101504 9.052409
v -18.549576 -2.269616 8.508575
v -18.549576 -2.269616 0.508574
v -18.727459 -8.155499 8.783621
v 15.795577 -3.905422 9.132647
v 15.795577 -3.905422 1.132646
v 16.535250 -8.057728 9.132647
v 19.356819 -4.028996 8.858604
v 19.356819 -4.028996 0.858605
v 20.096493 -8.181301 8.858604
v 19.814402 -4.593963 8.896084
v 19.814402 -4.593963 0.896084
v 21.209631 -8.192272 8.801462
v 24.799465 -5.104458 8.458088
v 24.799465 -5.104458 0.458088
v 26.194695 -8.702767 8.363466
vn -0.0000 1.0000 -0.0000
vn -0.0000 -0.0000 1.0000
vn -0.3140 0.0288 0.9490
vn 0.8317 0.5552 -0.0000
vn -0.0952 0.0493 0.9942
vn -0.0190 0.9998 -0.0000
vn -0.0193 -0.0015 0.9998
vn 0.9043 0.4269 -0.0000
vn 0.0772 0.0138 0.9969
vn 0.0347 0.9994 -0.0000
vn 0.0089 -0.0097 0.9999
vn 0.7771 0.6294 -0.0000
vn 0.0883 0.0081 0.9961
vn 0.1019 0.9948 -0.0000
vt 0.111936 0.921243
vt 0.108220 0.267573
vt 0.278894 0.264207
vt 0.283279 0.920347
vt 0.001481 0.922463
vt 0.000054 0.264009
vt 0.123316 0.936032
vt 0.001265 0.937909
vt 0.289937 0.939863
vt 0.124852 0.995151
vt 0.000054 0.998665
vt 0.293918 0.999946
vt 0.001516 0.234015
vt 0.097359 0.252797
vt 0.277389 0.239422
vt 0.003233 0.149595
vt 0.096825 0.172673
vt 0.277553 0.157490
vt 0.005154 0.121444
vt 0.088987 0.159687
vt 0.275498 0.140048
vt 0.002074 0.000054
vt 0.085764 0.040660
vt 0.273655 0.021295
s 0
f 1/1/1 2/2/1 4/3/1 3/4/1
f 2/2/2 1/1/2 5/5/2 6/6/2
f 5/5/3 1/1/3 7/7/3 9/8/3
f 1/1/4 3/4/4 8/9/4 7/7/4
f 9/8/5 7/7/5 10/10/5 12/11/5
f 7/7/6 8/9/6 11/12/6 10/10/6
f 2/2/7 6/6/7 15/13/7 13/14/7
f 4/3/8 2/2/8 13/14/8 14/15/8
f 13/14/9 15/13/9 18/16/9 16/17/9
f 14/15/10 13/14/10 16/17/10 17/18/10
f 16/17/11 18/16/11 21/19/11 19/20/11
f 17/18/12 16/17/12 19/20/12 20/21/12
f 19/20/13 21/19/13 24/22/13 22/23/13
f 20/21/14 19/20/14 22/23/14 23/24/14
