# Blender 4.5.2 LTS
# www.blender.org
mtllib chapel_pillar.mtl
o Pillar
v 42.629547 35.855629 -62.925041
v 42.573734 35.800961 -62.925041
v 42.536663 35.754700 -62.925041
v 42.450596 35.563168 -62.925041
v 42.413403 35.456425 -62.925041
v 42.311047 35.237503 -62.925041
v 42.275162 35.120331 -62.925045
v 42.157402 34.624252 -62.925045
v 42.145401 34.480095 -62.925045
v 42.123966 34.354923 -62.925045
v 42.118828 34.040298 -62.925045
v 42.216080 33.388390 -62.925045
v 42.247990 33.261845 -62.925045
v 42.329403 33.028095 -62.925045
v 42.435135 32.811787 -62.925045
v 42.552189 32.637127 -62.925045
v 42.629833 32.578899 -62.925045
v 42.791756 32.536640 -62.925045
v 42.860428 32.499947 -62.925045
v 43.131420 32.489548 -62.925045
v 43.220589 32.520416 -62.925045
v 43.392742 32.539715 -62.925045
v 43.462540 32.572437 -62.925045
v 43.541077 32.565090 -62.925045
v 43.596272 32.485149 -62.925045
v 43.616756 32.355251 -62.925045
v 43.627480 32.205704 -62.925045
v 43.638222 31.673496 -62.925045
v 43.656315 31.491266 -62.925045
v 43.692989 30.686880 -62.925045
v 43.711647 30.541965 -62.925045
v 43.723064 30.145950 -62.925045
v 43.740707 29.993362 -62.925045
v 43.810181 27.102150 -62.925045
v 43.823975 26.988039 -62.925045
v 43.838879 26.533379 -62.925045
v 43.856133 26.397636 -62.925045
v 43.868690 25.124739 -62.925045
v 43.885319 24.964554 -62.925045
v 43.897427 21.693535 -62.925045
v 43.914062 21.533579 -62.925045
v 43.926147 18.837187 -62.925045
v 43.942787 18.665308 -62.925045
v 43.955040 17.427279 -62.925045
v 43.973629 17.143286 -62.925045
v 43.983368 16.363535 -62.925045
v 44.000145 16.177385 -62.925045
v 44.011997 15.415274 -62.925045
v 44.028812 15.241179 -62.925045
v 44.040920 14.593950 -62.925045
v 44.059761 14.326269 -62.925045
v 44.069210 13.806689 -62.925045
v 44.086193 13.634465 -62.925045
v 44.098377 12.938244 -62.925045
v 44.117218 12.667208 -62.925045
v 44.126667 12.146755 -62.925045
v 44.143646 11.974930 -62.925045
v 44.155605 10.966935 -62.925045
v 44.174843 10.827533 -62.925045
v 44.184711 5.009886 -62.925045
v 44.201351 4.830195 -62.925045
v 44.213432 3.123003 -62.925045
v 44.230080 2.950750 -62.925045
v 44.242344 1.539509 -62.925045
v 44.260929 1.267972 -62.925045
v 44.271065 0.045416 -62.925045
v 44.289650 -0.225610 -62.925045
v 44.299625 -2.911202 -62.925045
v 44.316269 -3.045070 -62.925045
v 44.328114 -5.621738 -62.925045
v 44.340469 -5.754691 -62.925045
v 44.316193 -5.892498 -62.925045
v 44.258141 -5.941979 -62.925045
v 44.204266 -6.007135 -62.925045
v 44.143108 -6.061902 -62.925045
v 44.065956 -6.111660 -62.925045
v 43.988392 -6.135075 -62.925045
v 43.859089 -6.226022 -62.925045
v 43.779816 -6.247674 -62.925045
v 43.477730 -6.428327 -62.925045
v 43.456234 -6.554771 -62.925045
v 43.446495 -6.690035 -62.925045
v 43.458706 -6.822005 -62.925045
v 43.463417 -7.001978 -62.925045
v 43.482147 -7.135282 -62.925045
v 43.493286 -7.458342 -62.925045
v 43.511127 -7.623187 -62.925045
v 43.518822 -7.788735 -62.925045
v 43.538673 -7.961340 -62.925045
v 43.550556 -8.324640 -62.925045
v 43.567558 -8.463022 -62.925045
v 43.560291 -8.601871 -62.925045
v 43.502205 -8.644957 -62.925045
v 43.431252 -8.671064 -62.925045
v 42.928444 -8.680807 -62.925045
v 42.858929 -8.648840 -62.925045
v 42.611866 -8.642389 -62.925045
v 42.546642 -8.680752 -62.925045
v 42.342991 -8.839344 -62.925045
v 42.139236 -9.056660 -62.925045
v 42.005779 -9.255491 -62.925045
v 41.961140 -9.363159 -62.925045
v 41.795616 -9.693272 -62.925045
v 41.721733 -9.953817 -62.925045
v 41.674690 -10.078621 -62.925045
v 41.609745 -10.393435 -62.925045
v 41.583794 -10.563978 -62.925045
v 41.566158 -10.926170 -62.925045
v 41.547684 -11.072590 -62.925045
v 41.542637 -11.596504 -62.925045
v 41.558907 -11.731310 -62.925045
v 41.565815 -11.891211 -62.925045
v 41.585594 -12.051151 -62.925045
v 41.593784 -12.208258 -62.925045
v 41.618210 -12.333458 -62.925045
v 41.650852 -12.445160 -62.925045
v 41.719341 -12.512299 -62.925045
v 41.966267 -12.596775 -62.925045
v 42.294804 -12.621986 -62.925045
v 42.374748 -12.660133 -62.925045
v 43.349834 -12.665611 -62.925045
v 43.438576 -12.628620 -62.925045
v 44.329075 -12.609350 -62.925045
v 44.546734 -12.566864 -62.925045
v 46.135899 -12.568979 -62.925045
v 46.222202 -12.603025 -62.925045
v 46.719673 -12.677120 -62.925045
v 46.791763 -12.710518 -62.925045
v 46.956966 -12.731436 -62.925045
v 47.026085 -12.765715 -62.925045
v 47.108353 -12.780474 -62.925045
v 47.191402 -12.818699 -62.925045
v 47.358501 -12.841597 -62.925045
v 47.427860 -12.875692 -62.925045
v 48.191284 -12.886305 -62.925045
v 48.260841 -12.854271 -62.925045
v 48.508163 -12.832640 -62.925045
v 48.577194 -12.799593 -62.925045
v 48.738449 -12.778185 -62.925045
v 48.799252 -12.729277 -62.925045
v 48.836662 -12.635344 -62.925045
v 48.851242 -12.497425 -62.925045
v 48.858494 -12.345390 -62.925045
v 48.859913 -11.034784 -62.925045
v 48.843040 -10.901283 -62.925045
v 48.835461 -10.749432 -62.925045
v 48.808205 -10.628611 -62.925045
v 48.715454 -10.397484 -62.925045
v 48.644684 -10.181684 -62.925045
v 48.597809 -10.102825 -62.925045
v 48.561073 -9.999338 -62.925045
v 48.508633 -9.901764 -62.925045
v 48.341835 -9.702986 -62.925045
v 48.284618 -9.614128 -62.925045
v 47.993721 -9.320753 -62.925045
v 47.915180 -9.261503 -62.925045
v 47.853161 -9.197083 -62.925045
v 47.825989 -9.109812 -62.925045
v 47.801113 -9.008982 -62.925045
v 47.783966 -8.891712 -62.925045
v 47.769276 -8.384445 -62.925045
v 47.752026 -8.213333 -62.925045
v 47.747284 -7.382852 -62.925045
v 47.763805 -7.248830 -62.925045
v 47.766022 -6.930330 -62.925045
v 47.742626 -6.780670 -62.925045
v 47.698719 -6.694416 -62.925045
v 47.647709 -6.621138 -62.925045
v 47.276302 -6.273139 -62.925045
v 47.220860 -6.203864 -62.925045
v 47.215858 -5.982717 -62.925045
v 47.222828 -5.848050 -62.925045
v 47.222370 -3.391079 -62.925045
v 47.205746 -3.260461 -62.925045
v 47.193661 -1.848329 -62.925045
v 47.177021 -1.707380 -62.925045
v 47.164757 -0.420853 -62.925045
v 47.145359 -0.101653 -62.925045
v 47.136047 0.859208 -62.925045
v 47.115726 1.127979 -62.925045
v 47.108521 2.118480 -62.925045
v 47.088066 2.407838 -62.925045
v 47.114491 6.862356 -62.925045
v 47.133869 6.993609 -62.925045
v 47.143436 7.857896 -62.925045
v 47.162659 8.030025 -62.925045
v 47.172501 9.116312 -62.925045
v 47.189148 9.281105 -62.925045
v 47.193645 13.814035 -62.925045
v 47.177017 13.981802 -62.925045
v 47.164982 14.979523 -62.925045
v 47.148312 15.145533 -62.925045
v 47.107697 16.804285 -62.925045
v 47.090927 16.971081 -62.925045
v 47.079346 17.645845 -62.925045
v 47.059956 17.822155 -62.925045
v 47.050571 18.418068 -62.925045
v 47.031219 18.554569 -62.925045
v 47.021843 19.186604 -62.925045
v 47.002380 19.371622 -62.925045
v 46.878880 22.602936 -62.925045
v 46.860443 22.755726 -62.925045
v 46.821602 23.762768 -62.925045
v 46.801601 23.917480 -62.925045
v 46.677792 26.404171 -62.925045
v 46.660480 26.556305 -62.925045
v 46.648697 27.127176 -62.925045
v 46.631516 27.269545 -62.925045
v 46.619961 27.809244 -62.925045
v 46.602787 27.987320 -62.925045
v 46.590340 29.474674 -62.925045
v 46.573708 29.642065 -62.925045
v 46.561943 30.299679 -62.925045
v 46.545128 30.433670 -62.925045
v 46.537193 31.578875 -62.925045
v 46.543949 31.742077 -62.925045
v 46.588074 31.833477 -62.925045
v 46.633152 31.884489 -62.925045
v 46.998955 32.180904 -62.925045
v 47.057278 32.243374 -62.925045
v 47.226631 32.547226 -62.925045
v 47.317375 32.805161 -62.925045
v 47.443344 33.270416 -62.925045
v 47.497368 33.577374 -62.925045
v 47.509277 33.733227 -62.925045
v 47.530914 33.865112 -62.925045
v 47.539776 34.016773 -62.925045
v 47.560291 34.144634 -62.925045
v 47.566673 34.948143 -62.925045
v 47.495445 35.393349 -62.925041
v 47.433697 35.637547 -62.925041
v 47.376041 35.718174 -62.925041
v 47.283638 35.744961 -62.925041
vn -0.0000 -0.0000 1.0000
s 1
usemtl DPM
f 1//1 2//1 3//1 4//1 5//1 6//1 7//1 8//1 9//1 10//1 11//1 12//1 13//1 14//1 15//1 16//1 17//1 18//1 19//1 20//1 21//1 22//1 23//1 24//1 25//1 26//1 27//1 28//1 29//1 30//1 31//1 32//1 33//1 34//1 35//1 36//1 37//1 38//1 39//1 40//1 41//1 42//1 43//1 44//1 45//1 46//1 47//1 48//1 49//1 50//1 51//1 52//1 53//1 54//1 55//1 56//1 57//1 58//1 59//1 60//1 61//1 62//1 63//1 64//1 65//1 66//1 67//1 68//1 69//1 70//1 71//1 72//1 73//1 74//1 75//1 76//1 77//1 78//1 79//1 80//1 81//1 82//1 83//1 84//1 85//1 86//1 87//1 88//1 89//1 90//1 91//1 92//1 93//1 94//1 95//1 96//1 97//1 98//1 99//1 100//1 101//1 102//1 103//1 104//1 105//1 106//1 107//1 108//1 109//1 110//1 111//1 112//1 113//1 114//1 115//1 116//1 117//1 118//1 119//1 120//1 121//1 122//1 123//1 124//1 125//1 126//1 127//1 128//1 129//1 130//1 131//1 132//1 133//1 134//1 135//1 136//1 137//1 138//1 139//1 140//1 141//1 142//1 143//1 144//1 145//1 146//1 147//1 148//1 149//1 150//1 151//1 152//1 153//1 154//1 155//1 156//1 157//1 158//1 159//1 160//1 161//1 162//1 163//1 164//1 165//1 166//1 167//1 168//1 169//1 170//1 171//1 172//1 173//1 174//1 175//1 176//1 177//1 178//1 179//1 180//1 181//1 182//1 183//1 184//1 185//1 186//1 187//1 188//1 189//1 190//1 191//1 192//1 193//1 194//1 195//1 196//1 197//1 198//1 199//1 200//1 201//1 202//1 203//1 204//1 205//1 206//1 207//1 208//1 209//1 210//1 211//1 212//1 213//1 214//1 215//1 216//1 217//1 218//1 219//1 220//1 221//1 222//1 223//1 224//1 225//1 226//1 227//1 228//1 229//1 230//1 231//1 232//1 233//1
