# Blender 4.5.2 LTS
# www.blender.org
o PlaneStaircase
v -15.223937 -2.950840 9.117527
v 15.344901 -2.950840 9.117527
v -15.223937 -2.950840 1.117527
v 15.344901 -2.950840 1.117527
v -15.223937 -8.082233 9.117527
v 15.344901 -8.082233 9.117527
v -15.714684 -2.215621 8.777363
v -15.714684 -2.215621 0.777362
v -15.892568 -8.101504 9.052409
v -18.549576 -2.269616 8.508575
v -18.549576 -2.269616 0.508574
v -18.727459 -8.155499 8.783621
v 15.795577 -3.905422 9.132647
v 15.795577 -3.905422 1.132646
v 16.535250 -8.057728 9.132647
v 19.356819 -4.028996 8.858604
v 19.356819 -4.028996 0.858605
v 20.096493 -8.181301 8.858604
v 19.814402 -4.593963 8.896084
v 19.814402 -4.593963 0.896084
v 21.209631 -8.192272 8.801462
v 24.799465 -5.104458 8.458088
v 24.799465 -5.104458 0.458088
v 26.194695 -8.702767 8.363466
v -15.223937 -2.950840 -37.702427
v 15.344901 -2.950840 -37.702427
v -15.714684 -2.215621 -38.042591
v -18.549576 -2.269616 -38.311378
v 39.927902 -2.950840 1.117527
v -37.483498 -2.269616 8.508575
v -37.483498 -2.269616 0.508574
v -37.661377 -8.155499 8.783621
v -37.483498 -2.269616 -38.311378
v 39.927902 -2.950840 -37.702427
v 15.344901 -9.607717 1.117527
v 44.236736 -5.080000 8.433482
v 44.236736 -5.080000 0.433482
v 45.631966 -8.678308 8.338860
v 39.927902 -9.607718 1.117527
v 39.927902 -9.607718 -37.702427
vn -0.0000 1.0000 -0.0000
vn -0.0000 -0.0000 1.0000
vn -0.3140 0.0288 0.9490
vn 0.8317 0.5552 -0.0000
vn -0.0952 0.0493 0.9942
vn -0.0190 0.9998 -0.0000
vn -0.0193 -0.0015 0.9998
vn 0.9043 0.4269 -0.0000
vn 0.0772 0.0138 0.9969
vn 0.0347 0.9994 -0.0000
vn 0.0089 -0.0097 0.9999
vn 0.7771 0.6294 -0.0000
vn 0.0883 0.0081 0.9961
vn 0.1019 0.9948 -0.0000
vn -0.0000 0.0467 0.9989
vn 0.0013 -0.0258 0.9997
vn -0.0013 1.0000 -0.0000
vn 1.0000 -0.0000 -0.0000
vt 0.684521 0.733277
vt 0.319869 0.692718
vt 0.287657 0.602157
vt 0.679934 0.646886
vt 0.684763 0.789308
vt 0.328694 0.747095
vt 0.693670 0.728054
vt 0.695070 0.790348
vt 0.690905 0.644175
vt 0.728078 0.728174
vt 0.737239 0.791283
vt 0.724727 0.642933
vt 0.321190 0.746537
vt 0.313960 0.701990
vt 0.270066 0.620039
vt 0.299744 0.760598
vt 0.281775 0.721320
vt 0.222493 0.669532
vt 0.292972 0.765487
vt 0.279593 0.728742
vt 0.214501 0.679844
vt 0.282116 0.802924
vt 0.250287 0.775030
vt 0.171943 0.743065
vt 0.461683 0.171815
vt 0.729058 0.255157
vt 0.076787 0.394138
vt 0.258649 0.037832
vt 0.737913 0.250801
vt 0.765427 0.244558
vt 0.956822 0.223577
vt 0.938558 0.630215
vt 0.943474 0.710602
vt 0.956822 0.770821
vt 0.219328 0.637965
vt 0.000000 0.396723
vt 0.227283 1.000000
vt 0.193094 0.976355
vt 0.110541 0.953596
vt 0.194096 0.000000
s 0
f 1/1/1 2/2/1 4/3/1 3/4/1
f 2/2/2 1/1/2 5/5/2 6/6/2
f 5/5/3 1/1/3 7/7/3 9/8/3
f 1/1/4 3/4/4 8/9/4 7/7/4
f 9/8/5 7/7/5 10/10/5 12/11/5
f 7/7/6 8/9/6 11/12/6 10/10/6
f 2/2/7 6/6/7 15/13/7 13/14/7
f 4/3/8 2/2/8 13/14/8 14/15/8
f 13/14/9 15/13/9 18/16/9 16/17/9
f 14/15/10 13/14/10 16/17/10 17/18/10
f 16/17/11 18/16/11 21/19/11 19/20/11
f 17/18/12 16/17/12 19/20/12 20/21/12
f 19/20/13 21/19/13 24/22/13 22/23/13
f 20/21/14 19/20/14 22/23/14 23/24/14
f 3/4/1 4/3/1 26/25/1 25/26/1
f 26/25/1 4/3/1 29/27/1 34/28/1
f 8/9/4 3/4/4 25/26/4 27/29/4
f 11/12/6 8/9/6 27/29/6 28/30/6
f 11/12/1 28/30/1 33/31/1 31/32/1
f 12/11/15 10/10/15 30/33/15 32/34/15
f 10/10/1 11/12/1 31/32/1 30/33/1
f 29/27/2 4/3/2 35/35/2 39/36/2
f 22/23/16 24/22/16 38/37/16 36/38/16
f 23/24/17 22/23/17 36/38/17 37/39/17
f 34/28/18 29/27/18 39/36/18 40/40/18
